<svg xmlns="http://www.w3.org/2000/svg" viewBox="0 0 48.77 43"><g id="ba3d14c8-8417-4c3e-8ecf-915016e77fb5" data-name="текст"><path d="M26.77,6.86l.61,4.52L26.62,11l-.51-4.18-.87,0,.47,3.83-.47-.32-.5-3.52H24.2L24.72,10l-.59-.2-.43-3a14.73,14.73,0,0,0-2.41.34l.15,2.44h-.57l-.17-.19.06-2.13L20,7.44l.26,2.42-.47.58.32.87-.34.55-.15-4.3-.41.15.19,4.61-.57.7-.16-5.1a16.06,16.06,0,1,0,8.09-1.06Z" fill="none"/><path d="M24.72,10,24.2,6.74l-.5,0,.43,3Z" fill="#343330"/><path d="M25.71,10.57l-.47-3.83h-.5l.5,3.52Z" fill="#343330"/><path d="M27.38,11.38l-.61-4.52-.66-.07L26.62,11Z" fill="#343330"/><path d="M20.87,9.55h.57l-.15-2.44c-.18,0-.36.08-.53.12L20.7,9.36Z" fill="#343330"/><path d="M20.12,11.31l-.32-.87.47-.58L20,7.44l-.38.12.15,4.3Z" fill="#343330"/><path d="M19.41,12.32l-.19-4.61q-.27.09-.54.21l.16,5.1Z" fill="#343330"/><polygon points="18.67 7.74 18.67 7.74 18.67 7.66 18.67 7.74" fill="#343330"/><circle cx="24.65" cy="21.5" r="20.38" fill="none" stroke="#1d1d1b" stroke-miterlimit="10" stroke-width="0.69"/><path d="M24.76,6.74A14.87,14.87,0,1,1,9.9,21.61,14.87,14.87,0,0,1,24.76,6.74m0-.94A15.81,15.81,0,1,0,40.57,21.61,15.83,15.83,0,0,0,24.76,5.8Z" fill="#1d1d1b"/><path d="M8.33,19.31l0,.49L7,20.38l.19.19,1,.1,0,.42-2.65-.25,0-.42,1,.1-1-.92.05-.54,1,1Z" fill="#1d1d1b"/><path d="M8.68,17.58,8,17.63l-.19.86.58.32-.1.44L5.9,17.86l.1-.48,2.78-.23Zm-1.19.72.14-.64-1.14.08Z" fill="#1d1d1b"/><path d="M8.41,17a.67.67,0,0,0-.11-.24.63.63,0,0,0-.2-.2,3,3,0,0,0-.4-.2c-.17-.08-.4-.16-.69-.27l-.61-.22.41-1.14L9,15.5l.1-.29,1,.35-.12.36-.62-.22L8.9,16.77l.61.22-.13.36ZM7.15,15.7l.58.21a3.22,3.22,0,0,1,.41.19,1.18,1.18,0,0,1,.27.2.89.89,0,0,1,.16.25l.24-.65L7,15.26l-.13.34Z" fill="#1d1d1b"/><path d="M8.65,12.64a.7.7,0,0,1,.42.49,1.07,1.07,0,0,1-.13.69l-.21.41,1,.48-.19.38-2.37-1.2.4-.79A1,1,0,0,1,8,12.59.7.7,0,0,1,8.65,12.64ZM8.46,13a.41.41,0,0,0-.34,0,.58.58,0,0,0-.25.28l-.21.41.73.37.21-.4a.52.52,0,0,0,.07-.37A.38.38,0,0,0,8.46,13Z" fill="#1d1d1b"/><path d="M9.24,12.63a2.13,2.13,0,0,1-.4-.33,1.56,1.56,0,0,1-.26-.39.92.92,0,0,1-.08-.43A1,1,0,0,1,8.67,11,.84.84,0,0,1,9,10.7a.91.91,0,0,1,.43-.1,1.59,1.59,0,0,1,.46.1,2.88,2.88,0,0,1,.46.24,2.16,2.16,0,0,1,.39.34,1.25,1.25,0,0,1,.27.39.92.92,0,0,1,.08.43.87.87,0,0,1-.17.46.94.94,0,0,1-.36.33,1,1,0,0,1-.43.09,1.59,1.59,0,0,1-.46-.1A2.3,2.3,0,0,1,9.24,12.63Zm.24-.34a3.07,3.07,0,0,0,.31.17,1.11,1.11,0,0,0,.32.11.7.7,0,0,0,.29,0,.47.47,0,0,0,.24-.19.57.57,0,0,0,.09-.29.71.71,0,0,0-.09-.28,1,1,0,0,0-.21-.26,2,2,0,0,0-.29-.22,1.92,1.92,0,0,0-.31-.18,1.31,1.31,0,0,0-.32-.1.57.57,0,0,0-.29,0,.5.5,0,0,0-.24.2.51.51,0,0,0,0,.51A1.57,1.57,0,0,0,9.48,12.29Z" fill="#1d1d1b"/><path d="M12.21,9.7a.61.61,0,0,1,.25.55,1.13,1.13,0,0,1-.32.65l-.56.64-2-1.75.53-.61A1.58,1.58,0,0,1,10.34,9a.91.91,0,0,1,.27-.15.57.57,0,0,1,.29,0,.63.63,0,0,1,.32.17.69.69,0,0,1,.21.32.59.59,0,0,1,0,.39.84.84,0,0,1,.42-.14A.61.61,0,0,1,12.21,9.7ZM11,9.31a.4.4,0,0,0-.17-.09.29.29,0,0,0-.16,0,.44.44,0,0,0-.15.08l-.12.12-.25.29.56.48L11,9.92l.1-.14a.47.47,0,0,0,.06-.15.22.22,0,0,0,0-.16A.28.28,0,0,0,11,9.31Zm.92.68a.33.33,0,0,0-.32-.09.74.74,0,0,0-.33.23l-.28.32.6.52.27-.32a.63.63,0,0,0,.19-.36A.35.35,0,0,0,11.91,10Z" fill="#1d1d1b"/><path d="M11.93,9.09a2,2,0,0,1-.3-.42,1.68,1.68,0,0,1-.16-.44,1.08,1.08,0,0,1,0-.44,1,1,0,0,1,.28-.4.85.85,0,0,1,.43-.22.94.94,0,0,1,.44,0,1.38,1.38,0,0,1,.42.21,2.11,2.11,0,0,1,.38.35,2,2,0,0,1,.3.42,1.38,1.38,0,0,1,.17.45,1,1,0,0,1,0,.43,1,1,0,0,1-.28.41,1,1,0,0,1-.43.23.93.93,0,0,1-.44,0,1.32,1.32,0,0,1-.43-.21A2.46,2.46,0,0,1,11.93,9.09Zm.32-.27a2.06,2.06,0,0,0,.26.25,1.17,1.17,0,0,0,.28.17.58.58,0,0,0,.29,0,.45.45,0,0,0,.28-.13.46.46,0,0,0,.16-.26.58.58,0,0,0,0-.29,1.35,1.35,0,0,0-.14-.3A3.15,3.15,0,0,0,13.14,8a3.07,3.07,0,0,0-.26-.25,1.4,1.4,0,0,0-.28-.17.5.5,0,0,0-.29,0,.46.46,0,0,0-.28.12.51.51,0,0,0-.16.5A1.5,1.5,0,0,0,12.25,8.82Z" fill="#1d1d1b"/><path d="M15.86,7.65l-1.4,1L13,6.43l1.4-1,.22.32-1.06.72.42.61.82-.57.22.32-.82.56.44.65,1.06-.73Z" fill="#1d1d1b"/><path d="M33.23,7.49l.16-.64-.76-.45-.49.45-.38-.22,2.07-1.87.42.25-.64,2.71Zm-.32-1.35.57.33.28-1.11Z" fill="#1d1d1b"/><path d="M36.48,7l-1-.76L34.09,8l-.34-.26,1.59-2.13,1.37,1Z" fill="#1d1d1b"/><path d="M36.63,10.2,35.41,9,37.25,7.1l1.23,1.18-.27.28-.92-.89-.51.53.72.69-.26.27-.72-.69L36,9l.92.89Z" fill="#1d1d1b"/><path d="M38,11.79l-.27-.33.91-.73-.54-.67-.9.73-.27-.33L39,8.79l.26.33-.87.7.54.67.86-.7.27.33Z" fill="#1d1d1b"/><path d="M40.57,12.71l-.2-.33.51-.31-.19-.3-1.62,1,.22.36-.32.2-.66-1.08.32-.2.22.36,1.62-1-.19-.31-.5.31-.2-.32.82-.51,1,1.62Z" fill="#1d1d1b"/><path d="M40.77,15.14l-.38,0a1.14,1.14,0,0,1-.33-.07.8.8,0,0,1-.27-.18.93.93,0,0,1-.2-.3.86.86,0,0,1-.09-.48.91.91,0,0,1,.14-.41,1.36,1.36,0,0,1,.33-.35,2.2,2.2,0,0,1,.45-.26,2.84,2.84,0,0,1,.49-.17,1.5,1.5,0,0,1,.47,0,.94.94,0,0,1,.4.16.81.81,0,0,1,.3.37.84.84,0,0,1,.05.17.55.55,0,0,1,0,.18.48.48,0,0,1,0,.17.45.45,0,0,1-.1.14l.28-.13.16.34-.92.42-.15-.34.21-.13a1.19,1.19,0,0,0,.15-.18.57.57,0,0,0,.07-.22.51.51,0,0,0,0-.24.43.43,0,0,0-.21-.23.53.53,0,0,0-.28-.07.93.93,0,0,0-.33,0,2,2,0,0,0-.34.12,2.58,2.58,0,0,0-.32.18,1.36,1.36,0,0,0-.25.22.53.53,0,0,0-.13.26.5.5,0,0,0,0,.31.51.51,0,0,0,.32.29,1.3,1.3,0,0,0,.49,0Z" fill="#1d1d1b"/><path d="M42.28,16.91l-.12-.36.57-.18L42.62,16l-1.81.56.12.41-.36.11-.38-1.21.36-.11.13.4,1.81-.57-.1-.34-.57.17-.11-.35.93-.29.56,1.81Z" fill="#1d1d1b"/><path d="M41.78,19.27a.66.66,0,0,1-.59-.14,1.13,1.13,0,0,1-.3-.66l-.15-.84,2.61-.47.15.79a1.73,1.73,0,0,1,0,.32.94.94,0,0,1-.05.3.62.62,0,0,1-.17.25A.84.84,0,0,1,43,19a.74.74,0,0,1-.39,0,.52.52,0,0,1-.29-.26.77.77,0,0,1-.15.41A.58.58,0,0,1,41.78,19.27Zm0-.42a.35.35,0,0,0,.27-.19.65.65,0,0,0,0-.4L42,17.84l-.78.14.08.42a.67.67,0,0,0,.17.37A.31.31,0,0,0,41.74,18.85Zm1.11-.29a.49.49,0,0,0,.18-.08.38.38,0,0,0,.09-.13.44.44,0,0,0,0-.16,1.1,1.1,0,0,0,0-.18l-.06-.37-.73.13.07.38a.94.94,0,0,0,0,.16.53.53,0,0,0,.08.15.3.3,0,0,0,.13.09A.44.44,0,0,0,42.85,18.56Z" fill="#1d1d1b"/><path d="M42.43,19.45a2.24,2.24,0,0,1,.52,0,1.49,1.49,0,0,1,.45.15.91.91,0,0,1,.32.3.93.93,0,0,1,.14.46.94.94,0,0,1-.09.48,1,1,0,0,1-.29.33,1.36,1.36,0,0,1-.42.2,3,3,0,0,1-.52.08,2.83,2.83,0,0,1-.51,0,1.27,1.27,0,0,1-.45-.16.92.92,0,0,1-.33-.29,1,1,0,0,1-.14-.47.92.92,0,0,1,.09-.48,1,1,0,0,1,.29-.33,1.22,1.22,0,0,1,.43-.2A2.72,2.72,0,0,1,42.43,19.45Zm0,.42a2,2,0,0,0-.35.05,1,1,0,0,0-.32.11.67.67,0,0,0-.22.19.48.48,0,0,0-.07.3.5.5,0,0,0,.1.29.81.81,0,0,0,.24.17,1.14,1.14,0,0,0,.33.07,1.45,1.45,0,0,0,.36,0,1.34,1.34,0,0,0,.35,0,1,1,0,0,0,.32-.11.67.67,0,0,0,.22-.19.48.48,0,0,0,.07-.3.49.49,0,0,0-.29-.43A1.45,1.45,0,0,0,42.45,19.87Z" fill="#1d1d1b"/><path d="M23.86,21.48l.67.23.8.28.45.15c.56.16.83.14.86.28s0,0-.08.12a1.15,1.15,0,0,0,.09.86,11.43,11.43,0,0,0,.4,1.18s0,.22.05.32c.09.27.24.51.28.65a2.81,2.81,0,0,0,.31.62c.13.24.31.33.41.49.25.38.46.68.59.84a6,6,0,0,0,.43.57l.3.4c0,.06.32.42.55.75s.43.61.71,1.07a9.42,9.42,0,0,1,.66,1.26,6.16,6.16,0,0,1,.41,1.22,4.34,4.34,0,0,1,.14,1.43A4.77,4.77,0,0,1,31,36.48a5.26,5.26,0,0,1-3.68,2,4.69,4.69,0,0,1-1.22-.08,4.09,4.09,0,0,1-1.6-.79,5.7,5.7,0,0,1-1.74-2.5,6,6,0,0,1-.43-2,1.44,1.44,0,0,1,.13-.93,1,1,0,0,1,.46-.44,1.19,1.19,0,0,1,1.28.28c.34.27.34.4,1,.93.07.06.72.42.81.36s0,0,0,0a1.31,1.31,0,0,1,.13-.23,3.54,3.54,0,0,0,.23-.63,2.61,2.61,0,0,0-.05-1.21A4.41,4.41,0,0,0,25.88,30c-.14-.26-.16-.26-.61-1-.34-.53-.51-.79-.67-1.08A12.72,12.72,0,0,1,24,26.72c-.25-.6-.38-.9-.5-1.29s-.23-.79-.37-.78,0,0-.1.07-.17,0-.44,0h-.21a3.12,3.12,0,0,1-.4-.05c-.12,0-.19,0-.2-.05s.2-.32.52-.62.66-.6.93-.87c.59-.58.46-.53.69-.71s.44-.28.41-.43a.24.24,0,0,0-.1-.14c-.1-.08-.16-.06-.31-.14s-.21-.1-.2-.17S23.81,21.49,23.86,21.48Z" fill="#92989e"/><path d="M20.77,9.66l2.38-.4,4.45,2.3,2.85,3.37-.36,7.66-.26.37-.5.47L29,23.3l-.13-.06-1.59,1.6L28,23a11.64,11.64,0,0,1-1.51-.44l-2.6-.88-.38-.25L22,16.59,19.8,10.44l.54-.43Z" fill="#f7ea53"/><path d="M23.13,20.22s-.13.44-.06.48-.45.31-.55.59a6.67,6.67,0,0,0-.13,1.08l.06.06-2.11,2.24-.2.27.05.34.48.33,1,.3,1.81.59.51.13-.81-1.72v-.3a3.24,3.24,0,0,0,.25-1.31l1.13-.94.15-.18L24.29,22l.11-.06-.69-.31,0-.17-.5-1.31-.15.07Z" fill="#f7ea53"/><polygon points="23.5 21.78 20.49 24.94 21.15 25.17 24.28 21.94 23.85 21.72 23.7 21.63 23.5 21.78" fill="#92989e"/><polygon points="16.8 14.81 16.23 15.58 19.39 26.22 20.14 25.61 20.08 25.06 20.79 24.13 21.48 23.35 20.79 21.68 20.65 21.32 20.49 20.8 20.25 20.36 20.63 19.8 19.63 18.95 19.1 17.4 17.93 15.5 17.67 14.71 16.8 14.81" fill="#f7ea53"/><polygon points="24.1 26.74 20.23 25.46 19.39 26.22 24.1 27.49 24.35 27.57 24.1 26.74" fill="#e0ca3a"/><rect x="19.06" y="20.95" width="2.84" height="0.49" rx="0.24" transform="translate(-7.85 13.08) rotate(-30)" fill="#030707"/><path d="M20.79,13.76l-1.18,1.63-1.16,1.06A7.93,7.93,0,0,0,19,18.34c.24.21,1,1.05,1,1.05l.44.35.09.06L22.17,18l.22-.2-.3-.73L21,13.67Z" fill="#7b7f87"/><polygon points="22.21 18.08 22.3 17.98 22.47 18.36 20.51 20.7 20.25 20.36 22.17 18.12 22.21 18.08" fill="#7b7f87"/><polygon points="17.6 14.63 20.11 11.31 21 13.67 20.6 14.1 20.38 14.59 20.19 14.96 19.9 15.3 19.59 15.6 19.3 15.93 18.94 16.25 18.67 16.59 17.58 16.37 17.06 15.43 16.91 14.6 17.6 14.63" fill="#030707"/><polygon points="19.99 21.2 22.51 18.34 23.09 20.11 23.14 20.26 23.09 20.53 23.1 20.67 23.07 20.72 22.84 20.92 22.57 21.28 22.43 21.87 22.43 22.36 22.21 22.59 21.05 23.82 19.99 21.2" fill="#030707"/><path d="M18.45,16.45l-.48-.1-.39,0a23,23,0,0,0,1,2.35c.15.22.55,1.13.89,1.66a3.9,3.9,0,0,1-.1,1.25l1.21-.71-.3-.59.3-.53-.7-.56h0a5.42,5.42,0,0,1-.76-.9,5.82,5.82,0,0,1-.55-1.2C18.56,16.89,18.45,16.45,18.45,16.45Z" fill="#030707"/><polygon points="20.23 9.39 20.75 9.14 21 9.71 20.23 9.86 20.23 9.39" fill="#030707"/><path d="M24,23.09a5,5,0,0,1,.71-.52c.07,0,.2-.52.2-.52v-.11l-.07,0-.7-.23L24,21.57l.37.31,0,.12.15.09.17.09-.32.31-.32.25Z" fill="#030707"/><path d="M26.56,23.14a5.93,5.93,0,0,0-1.65.62c-.2.26,0-1.46,0-1.46l0-.41,1.45.52.28.08v.62Z" fill="#030707"/><path d="M9.79,27.57a1.48,1.48,0,0,0-.48,1.2c0,.82,0,2.34,0,2.69a15.29,15.29,0,0,0,.23,2.32c.18.45.35.85.35.85h1.5l5.19-.57,3.94-.32,1.65-.07.11-.94.19-.58.69-.32.53-.05.81.61.45.43.41.33.53.24.05-.16,1.71-.08-1.54,0,3.79-.31,5.06-.5,4.36-.24L41,31.92l-.12-.32-.3-.72-.25-2.11,0-1.31.09-1.63L40.6,25l.21-.19-1.59.11L9.89,27.49Z" fill="#e5eaf7"/><polygon points="40.46 26.35 40.41 27.35 40.43 29.06 40.59 30.45 40.78 31.35 40.99 31.89 41.26 31.89 41.57 30.59 41.57 29.06 41.55 27.93 41.35 25.92 41.09 24.93 40.99 24.73 40.88 24.83 40.64 25.17 40.46 26.35" fill="#030707"/><polygon points="19.29 19.86 18.49 20.22 19.22 19.73 19.29 19.86" fill="#030707"/><polygon points="19.33 19.62 18.53 19.97 19.26 19.49 19.33 19.62" fill="#030707"/><polygon points="19.16 19.5 18.36 19.85 19.08 19.36 19.16 19.5" fill="#030707"/><polygon points="19.63 20.35 18.83 20.71 19.56 20.22 19.63 20.35" fill="#030707"/><polygon points="19.71 20.55 18.91 20.91 19.64 20.42 19.71 20.55" fill="#030707"/><polygon points="19.81 20.73 19.02 21.08 19.74 20.6 19.81 20.73" fill="#030707"/><polygon points="19.81 21 19.02 21.35 19.74 20.86 19.81 21" fill="#030707"/><polygon points="20.29 21.82 19.25 22.37 20.23 21.71 20.29 21.82" fill="#030707"/><polygon points="20.43 22.06 19.38 22.61 20.36 21.95 20.43 22.06" fill="#030707"/><polygon points="22.75 24.79 23.24 26.29 22.63 24.83 22.75 24.79" fill="#030707"/><polygon points="22.46 24.79 22.94 26.29 22.34 24.83 22.46 24.79" fill="#030707"/><polygon points="22.16 24.72 22.47 25.74 22.04 24.76 22.16 24.72" fill="#030707"/><polygon points="23.71 24.52 24.61 23.95 23.79 24.63 23.71 24.52" fill="#030707"/><polygon points="24.89 23.41 26.34 23.62 24.88 23.56 24.89 23.41" fill="#030707"/><polygon points="25.07 23.2 26.52 23.41 25.05 23.35 25.07 23.2" fill="#030707"/><polygon points="25.1 23.02 26.55 23.23 25.09 23.17 25.1 23.02" fill="#030707"/><polygon points="24.86 23.68 26.31 23.89 24.85 23.83 24.86 23.68" fill="#030707"/><polygon points="24.97 24.32 26.44 24.43 24.97 24.47 24.97 24.32" fill="#030707"/><polygon points="26.26 33.29 27.4 33.39 26.25 33.42 26.26 33.29" fill="#030707"/><polygon points="26.33 33.12 27.39 33.22 26.33 33.25 26.33 33.12" fill="#030707"/><polygon points="26.26 32.95 27.32 33.05 26.25 33.08 26.26 32.95" fill="#030707"/><polygon points="25.17 24.95 26.23 24.98 25.18 25.09 25.17 24.95" fill="#030707"/><polygon points="25.23 25.25 26.29 25.28 25.23 25.38 25.23 25.25" fill="#030707"/><polygon points="25.44 25.53 26.5 25.5 25.45 25.66 25.44 25.53" fill="#030707"/><polygon points="25.57 25.82 26.52 25.76 25.58 25.94 25.57 25.82" fill="#030707"/><polygon points="25.82 26.31 26.66 26.17 25.84 26.41 25.82 26.31" fill="#030707"/><polygon points="23.63 24.34 24.5 23.73 23.71 24.44 23.63 24.34" fill="#030707"/><polygon points="23.59 24.14 24.46 23.54 23.67 24.25 23.59 24.14" fill="#030707"/><polygon points="23.59 23.95 24.46 23.34 23.67 24.05 23.59 23.95" fill="#030707"/><polygon points="23.64 23.64 24.54 23.07 23.77 23.81 23.64 23.64" fill="#030707"/><polygon points="23.62 23.33 24.59 22.88 23.78 23.57 23.62 23.33" fill="#030707"/><polygon points="23.71 23.2 24.64 22.68 23.78 23.31 23.71 23.2" fill="#030707"/><polygon points="23.75 24.8 24.6 24.17 23.83 24.9 23.75 24.8" fill="#030707"/><polygon points="23.74 25.11 24.62 24.51 23.82 25.22 23.74 25.11" fill="#030707"/><polygon points="23.86 25.5 24.66 24.8 23.96 25.59 23.86 25.5" fill="#030707"/><polygon points="23.97 25.84 24.77 25.14 24.06 25.93 23.97 25.84" fill="#030707"/><polygon points="24.04 26.2 24.84 25.5 24.13 26.29 24.04 26.2" fill="#030707"/><polygon points="24.16 26.5 24.95 25.8 24.25 26.59 24.16 26.5" fill="#030707"/><polygon points="24.23 26.87 25.03 26.17 24.32 26.96 24.23 26.87" fill="#030707"/><polygon points="24.33 27.2 25.13 26.5 24.42 27.29 24.33 27.2" fill="#030707"/><polygon points="24.34 27.63 25.13 26.92 24.44 27.72 24.34 27.63" fill="#030707"/><polygon points="21.92 24.72 22.1 25.41 21.8 24.76 21.92 24.72" fill="#030707"/><polygon points="23 24.79 23.48 26.29 22.88 24.83 23 24.79" fill="#030707"/><polygon points="20.52 22.29 19.47 22.84 20.45 22.18 20.52 22.29" fill="#030707"/><polygon points="20.65 22.54 19.61 23.09 20.59 22.42 20.65 22.54" fill="#030707"/><polygon points="20.73 22.8 19.68 23.35 20.66 22.68 20.73 22.8" fill="#030707"/><polygon points="20.81 23.03 19.77 23.58 20.75 22.91 20.81 23.03" fill="#030707"/><polygon points="20.95 23.27 19.91 23.82 20.88 23.16 20.95 23.27" fill="#030707"/><polygon points="20.99 23.55 19.94 24.1 20.92 23.43 20.99 23.55" fill="#030707"/><polygon points="21.23 23.77 20.01 24.36 21.25 23.54 21.29 23.71 21.23 23.77" fill="#030707"/><polygon points="20.79 24.17 20.7 24.27 20.06 24.58 20.86 24.1 20.79 24.17" fill="#030707"/><polygon points="19.52 20.18 18.72 20.54 19.45 20.05 19.52 20.18" fill="#030707"/><polygon points="19.49 19.98 18.69 20.34 19.42 19.85 19.49 19.98" fill="#030707"/><polygon points="19.15 19.32 18.35 19.67 19.08 19.18 19.15 19.32" fill="#030707"/><polygon points="19.12 19.14 18.32 19.49 19.05 19.01 19.12 19.14" fill="#030707"/><polygon points="19.12 18.93 18.32 19.28 19.05 18.8 19.12 18.93" fill="#030707"/><polygon points="18.92 18.82 18.3 19.1 18.85 18.71 18.92 18.82" fill="#030707"/><polygon points="18.77 18.69 18.16 18.96 18.71 18.57 18.77 18.69" fill="#030707"/><polygon points="18.72 18.32 18.1 18.59 18.65 18.2 18.72 18.32" fill="#030707"/><polygon points="18.8 18.47 18.18 18.75 18.73 18.36 18.8 18.47" fill="#030707"/><polygon points="18.75 18.1 18.07 18.39 18.68 17.97 18.75 18.1" fill="#030707"/><polygon points="18.68 17.92 18 18.21 18.61 17.79 18.68 17.92" fill="#030707"/><polygon points="18.59 17.76 17.91 18.05 18.51 17.63 18.59 17.76" fill="#030707"/><polygon points="18.59 17.57 17.91 17.86 18.52 17.43 18.59 17.57" fill="#030707"/><polygon points="18.49 17.41 17.81 17.69 18.42 17.27 18.49 17.41" fill="#030707"/><line x1="23.39" y1="34.05" x2="22.55" y2="34.63" fill="none" stroke="#030707" stroke-miterlimit="10" stroke-width="0.11"/><line x1="23.27" y1="33.88" x2="22.52" y2="34.4" fill="none" stroke="#030707" stroke-miterlimit="10" stroke-width="0.11"/><line x1="23.19" y1="33.67" x2="22.45" y2="34.19" fill="none" stroke="#030707" stroke-miterlimit="10" stroke-width="0.11"/><line x1="23.15" y1="33.47" x2="22.4" y2="33.99" fill="none" stroke="#030707" stroke-miterlimit="10" stroke-width="0.11"/><line x1="23.15" y1="33.26" x2="22.4" y2="33.78" fill="none" stroke="#030707" stroke-miterlimit="10" stroke-width="0.11"/><line x1="23.49" y1="34.23" x2="22.55" y2="34.88" fill="none" stroke="#030707" stroke-miterlimit="10" stroke-width="0.11"/><line x1="23.57" y1="34.42" x2="22.67" y2="35.04" fill="none" stroke="#030707" stroke-miterlimit="10" stroke-width="0.11"/><line x1="23.73" y1="34.78" x2="22.78" y2="35.44" fill="none" stroke="#030707" stroke-miterlimit="10" stroke-width="0.11"/><line x1="23.62" y1="34.62" x2="22.74" y2="35.23" fill="none" stroke="#030707" stroke-miterlimit="10" stroke-width="0.11"/><line x1="23.85" y1="34.93" x2="22.82" y2="35.64" fill="none" stroke="#030707" stroke-miterlimit="10" stroke-width="0.11"/><line x1="23.94" y1="35.12" x2="23.01" y2="35.76" fill="none" stroke="#030707" stroke-miterlimit="10" stroke-width="0.11"/><line x1="24.25" y1="35.44" x2="23.21" y2="36.16" fill="none" stroke="#030707" stroke-miterlimit="10" stroke-width="0.11"/><line x1="24.11" y1="35.26" x2="23.09" y2="35.96" fill="none" stroke="#030707" stroke-miterlimit="10" stroke-width="0.11"/><line x1="24.41" y1="35.6" x2="23.3" y2="36.38" fill="none" stroke="#030707" stroke-miterlimit="10" stroke-width="0.11"/><line x1="24.58" y1="35.75" x2="23.45" y2="36.54" fill="none" stroke="#030707" stroke-miterlimit="10" stroke-width="0.11"/><line x1="24.8" y1="35.88" x2="23.57" y2="36.74" fill="none" stroke="#030707" stroke-miterlimit="10" stroke-width="0.11"/><polygon points="28.33 37.08 27.66 37.67 27.64 37.65 28.25 37 28.33 37.08" fill="#030707"/><polygon points="28.61 37.04 27.97 37.62 27.95 37.6 28.54 36.96 28.61 37.04" fill="#030707"/><polygon points="28.9 36.98 28.23 37.57 28.21 37.55 28.82 36.9 28.9 36.98" fill="#030707"/><polygon points="29.26 36.9 28.62 37.48 28.6 37.45 29.18 36.83 29.26 36.9" fill="#030707"/><polygon points="29.58 36.81 28.94 37.39 28.92 37.37 29.51 36.74 29.58 36.81" fill="#030707"/><polygon points="29.94 36.69 29.3 37.26 29.28 37.24 29.86 36.61 29.94 36.69" fill="#030707"/><polygon points="30.37 36.48 29.66 37.12 29.64 37.1 30.29 36.4 30.37 36.48" fill="#030707"/><polygon points="30.69 36.32 29.98 36.96 29.96 36.94 30.61 36.24 30.69 36.32" fill="#030707"/><polygon points="23.15 9.26 27.59 11.56 30.45 14.93 30.04 22.59 24.72 20.78 22.92 15.72 22.57 16.03 20.49 9.71 23.15 9.26" fill="none" stroke="#030707" stroke-miterlimit="10" stroke-width="0.22"/><polygon points="16.88 14.71 16.23 15.58 19.39 26.22 24.4 27.57 23.91 26.65 20.23 25.46 16.88 14.71" fill="none" stroke="#030707" stroke-miterlimit="10" stroke-width="0.22"/><polygon points="27.05 24.16 27.24 24.84 28.77 23.31 28.12 23.07 27.05 24.16" fill="#030707" stroke="#030707" stroke-miterlimit="10" stroke-width="0.22"/><path d="M21.22,25.3l-.86-.3,3.36-3.5.82.39Zm-.61-.47.55.22,3-3.09-.56-.27Z" fill="#030707"/><polygon points="20.65 20.52 22.47 18.36 22.28 17.93 20.28 20.3 20.51 20.7 20.65 20.52" fill="none" stroke="#030707" stroke-miterlimit="10" stroke-width="0.22"/><path d="M20.52,24.47c.27-.38.57-.76.88-1.12s.6-.74.93-1.09l0,.1a2.44,2.44,0,0,1,.12-1,1.19,1.19,0,0,1,.66-.73l0,.07a.79.79,0,0,1,.11-.51h0a.71.71,0,0,0-.06.47h0a1.21,1.21,0,0,0-.59.72,2.14,2.14,0,0,0-.08.94h0l-1.9,2.13Z" fill="#030707"/><path d="M25.94,26.64c-.21-.36-.42-.72-.62-1.08a8.52,8.52,0,0,1-.54-1.14,4,4,0,0,1,0-2.55l.39.16A3.72,3.72,0,0,0,25,24.36a7.7,7.7,0,0,0,.45,1.14c.17.37.35.75.54,1.12Z" fill="#030707"/><path d="M18.74,16.47a3.24,3.24,0,0,0,.48,1.86A5.22,5.22,0,0,0,20.6,19.8a5.38,5.38,0,0,1-1.5-1.39,3.28,3.28,0,0,1-.64-2Z" fill="#030707"/><path d="M19,16.2a3.21,3.21,0,0,0,.48,1.86,5.22,5.22,0,0,0,1.38,1.47,5.1,5.1,0,0,1-1.5-1.39,3.33,3.33,0,0,1-.65-2Z" fill="#030707"/><path d="M19.34,15.87a3.13,3.13,0,0,0,.48,1.86A5.22,5.22,0,0,0,21.2,19.2a5.1,5.1,0,0,1-1.5-1.39,3.33,3.33,0,0,1-.65-2Z" fill="#030707"/><path d="M19.66,15.55a3.24,3.24,0,0,0,.48,1.86,5.22,5.22,0,0,0,1.38,1.47A5.23,5.23,0,0,1,20,17.49a3.28,3.28,0,0,1-.64-2Z" fill="#030707"/><path d="M19.94,15.27a3.13,3.13,0,0,0,.48,1.86A5.22,5.22,0,0,0,21.8,18.6a5.1,5.1,0,0,1-1.5-1.39,3.33,3.33,0,0,1-.65-2Z" fill="#030707"/><path d="M20.2,14.93a3.26,3.26,0,0,0,.48,1.87,5.18,5.18,0,0,0,1.38,1.46,5.33,5.33,0,0,1-1.5-1.38,3.45,3.45,0,0,1-.64-2Z" fill="#030707"/><path d="M20.49,14.52A3.11,3.11,0,0,0,21,16.39a5.29,5.29,0,0,0,1.37,1.46,5.29,5.29,0,0,1-1.49-1.38,3.38,3.38,0,0,1-.65-2Z" fill="#030707"/><path d="M20.67,14A3.06,3.06,0,0,0,21,15.64,4.71,4.71,0,0,0,22.08,17a5,5,0,0,1-1.2-1.3,3.24,3.24,0,0,1-.5-1.74Z" fill="#030707"/><polygon points="23.12 15.67 25.95 16.93 23.04 15.86 23.12 15.67" fill="#030707"/><path d="M28.68,20.18a.53.53,0,0,1-.22.49.9.9,0,0,1-.53.1,2.2,2.2,0,0,1-.94-.36,2.11,2.11,0,0,1-1.08-1.62.47.47,0,0,1,.31-.44,1.17,1.17,0,0,1,.49,0,2.44,2.44,0,0,1,.86.37A2.38,2.38,0,0,1,28.68,20.18Zm-.09,0a2.12,2.12,0,0,0-1-1.45,2.21,2.21,0,0,0-.85-.36.53.53,0,0,0-.43.08.39.39,0,0,0-.12.34A2.35,2.35,0,0,0,27.2,20.1a2.38,2.38,0,0,0,.77.37C28.23,20.53,28.55,20.51,28.59,20.18Z" fill="#030707"/><path d="M27.3,14.15a.52.52,0,0,1-.22.48.9.9,0,0,1-.53.1,2.18,2.18,0,0,1-.94-.35,2.14,2.14,0,0,1-1.08-1.63.47.47,0,0,1,.31-.44,1.17,1.17,0,0,1,.49,0,2.44,2.44,0,0,1,.86.37A2.34,2.34,0,0,1,27.3,14.15Zm-.09,0a2.13,2.13,0,0,0-1-1.46,2.25,2.25,0,0,0-.86-.36.53.53,0,0,0-.43.08.37.37,0,0,0-.11.34,2.29,2.29,0,0,0,1,1.31,2.45,2.45,0,0,0,.78.38C26.85,14.49,27.18,14.47,27.21,14.15Z" fill="#030707"/><polyline points="16.92 14.57 17.71 14.57 20.11 11.31 19.89 10.45 20.34 9.8" fill="none" stroke="#030707" stroke-miterlimit="10" stroke-width="0.22"/><path d="M20.37,10l2.14,6.33.19-.16L24.32,21l5.44,1.83-.48.53-5.61-1.86L19.94,10.59l.43-.56m.08-.46-.25.33-.43.56-.07.1,0,.11,3.72,10.88,0,.1.1,0,5.61,1.86.14,0,.09-.1.48-.54.22-.25-.31-.1-5.34-1.79L22.9,16.13l-.1-.31-.19.16-2-6-.13-.39Z" fill="#030707"/><path d="M25.05,36.1a4.14,4.14,0,0,1-1.72-2A4.6,4.6,0,0,1,23,32.88a2.15,2.15,0,0,1,0-.67.55.55,0,0,1,.48-.45v.06c-.44.1-.43.65-.37,1a4.8,4.8,0,0,0,.38,1.22,4.57,4.57,0,0,0,1.58,2Z" fill="#030707"/><path d="M26.61,22.52a8,8,0,0,0,.2,1.17,11.52,11.52,0,0,0,.35,1.14A10.36,10.36,0,0,0,28.25,27c.23.33.47.65.71,1s.48.64.71,1a22.7,22.7,0,0,1,1.33,2c.21.35.41.7.59,1.07a4.87,4.87,0,0,1,.24.57,2.63,2.63,0,0,1,.09.3L32,33l0,.15,0,.16a.77.77,0,0,1,0,.15c0,.11,0,.21,0,.32a3.33,3.33,0,0,1,0,.63,2.72,2.72,0,0,1-.46,1.19,2.91,2.91,0,0,1-.93.85,4.37,4.37,0,0,1-1.15.45,7,7,0,0,1-1.21.16,4.88,4.88,0,0,1-.56,0,5.71,5.71,0,0,1-.64-.14h0c.2,0,.4.05.6.05a5.14,5.14,0,0,0,.59,0,5.77,5.77,0,0,0,1.17-.23,3.66,3.66,0,0,0,1.06-.49,2.51,2.51,0,0,0,.79-.8,2.48,2.48,0,0,0,.36-1.06,3.62,3.62,0,0,0,0-.57,5.51,5.51,0,0,0-.06-.57,7.41,7.41,0,0,0-.3-1.12,8.93,8.93,0,0,0-.48-1.1c-.19-.35-.4-.69-.62-1s-.44-.67-.67-1c-.46-.65-.95-1.29-1.41-1.95A10.47,10.47,0,0,1,27,24.89a12,12,0,0,1-.37-1.16c-.05-.19-.1-.39-.14-.59a6,6,0,0,1-.09-.61Z" fill="#030707"/><path d="M27.54,29.21a8.11,8.11,0,0,1,1,2.06,3.46,3.46,0,0,1,.19,1.17,1.2,1.2,0,0,1-.63,1.06,2.36,2.36,0,0,1-1.19.18,3.68,3.68,0,0,1-1.14-.24,3.05,3.05,0,0,1-1-.63A8.63,8.63,0,0,0,24,32,.78.78,0,0,0,23,32a1.37,1.37,0,0,0-.42.3,1.13,1.13,0,0,0-.14.49,5.28,5.28,0,0,0,.28,2.19,4.5,4.5,0,0,0,.45,1c.21.34.39.67.6,1a3.18,3.18,0,0,0,1.63,1.26,5,5,0,0,0,4.13-.59,4.89,4.89,0,0,0,2.19-3.68,8,8,0,0,0-1.56-4.16c-.83-1.28-1.82-2.45-2.56-3.79l0,0a45.69,45.69,0,0,0,2.61,3.75A8.08,8.08,0,0,1,32,33.9a5.28,5.28,0,0,1-2.22,4,5,5,0,0,1-4.57.9,3.47,3.47,0,0,1-1.81-1.62c-.2-.34-.36-.7-.52-1A5.12,5.12,0,0,1,22.42,35a5.55,5.55,0,0,1-.21-2.33,1.4,1.4,0,0,1,.21-.59,1.79,1.79,0,0,1,.51-.35,1,1,0,0,1,.6-.13,1.13,1.13,0,0,1,.55.26c.62.5,1.05,1.15,1.77,1.39A2.56,2.56,0,0,0,28,33.22c.64-.31.57-1.2.38-1.89a11.13,11.13,0,0,0-.85-2.1Z" fill="#030707"/><path d="M23.91,24.41a10.89,10.89,0,0,0,.47,2.31,11.4,11.4,0,0,0,.92,2.19,10.38,10.38,0,0,1,1.1,2.15,3.21,3.21,0,0,1-.18,2.48l-.31-.19a2.69,2.69,0,0,0,.44-1.08,2.84,2.84,0,0,0-.11-1.16A7.28,7.28,0,0,0,25.09,29a16.18,16.18,0,0,1-1.16-2.12c-.34-.74-.65-1.48-.93-2.26Z" fill="#030707"/><path d="M21.93,24.78a1,1,0,0,1-.29-.07l0-.06a.77.77,0,0,0,.27.07Z" fill="#030707"/><path d="M23.92,24.51a4.2,4.2,0,0,1,.26-1.77c.31-.59-.79.56-.79.56l-.14.8-.11.56Z" fill="#030707"/><path d="M26.5,33.45a2.45,2.45,0,0,0,.54,0,1.73,1.73,0,0,0,1-.3l.06,0-2.15.18h0A2.4,2.4,0,0,0,26.5,33.45Z" fill="none"/><path d="M31.39,31.53a13.67,13.67,0,0,0-1.15-2c-.42-.61-.89-1.21-1.34-1.8l-.33-.46-.15-.23-.16-.23c-.21-.31-.42-.62-.6-.95l-.05,0c.18.33.38.65.59,1l.15.23.15.24.32.47c.44.6.89,1.21,1.3,1.83a12.38,12.38,0,0,1,1.08,1.95,6,6,0,0,1,.36,1l.24,0A8.14,8.14,0,0,0,31.39,31.53Z" fill="#030707"/><path d="M28.77,32.37a3.44,3.44,0,0,0-.21-1.15,8.27,8.27,0,0,0-1-2l0,0c.17.33.33.67.47,1a8,8,0,0,1,.36,1,3.32,3.32,0,0,1,.14,1.07,1.1,1.1,0,0,1-.12.48.35.35,0,0,1-.05.08l.38,0A1.52,1.52,0,0,0,28.77,32.37Z" fill="#030707"/><polygon points="19.8 26.61 28.38 25.82 31.62 30.81 32.4 32.56 32.27 32.72 25.83 33.19 25.57 30.96 23.03 28.34 19.68 27.3 19.8 26.61" fill="#e5eaf7"/><path d="M28.09,33.14l.49,0,.06-.12a.3.3,0,0,0,0-.1l-.38,0a.39.39,0,0,1-.08.1Z" fill="#030707"/><path d="M31.56,32.62l.06.21.24,0-.06-.21Z" fill="#030707"/><path d="M41.12,32l0-.2-8.64.73-.69.06a1.42,1.42,0,0,1,.05.22l.66-.06Z" fill="#030707"/><path d="M28.58,33.1l3-.27-.06-.21-2.88.26a.3.3,0,0,1,0,.1Z" fill="#030707"/><path d="M28.09,33.14l.13-.12a.39.39,0,0,0,.08-.1l-2.73.25a2.87,2.87,0,0,0,.37.15Z" fill="#030707"/><path d="M22.16,33.48,16.1,34l-6.1.56,0,.19,6.09-.53,6.05-.54h0C22.17,33.6,22.16,33.54,22.16,33.48Z" fill="#030707"/><rect x="9.71" y="26.01" width="31.22" height="0.19" transform="translate(-2.21 2.34) rotate(-5.08)" fill="#040707"/><path d="M41.11,32q-.16,0-.3-.27a12.64,12.64,0,0,1-.51-4.06c0-1.18.11-2.67.43-3a.17.17,0,0,1,.14-.06c.58,0,.81,2.63.81,4.28,0,.89,0,3-.53,3.08Zm-.22-7.16c-.13.07-.37.95-.37,2.83a12.43,12.43,0,0,0,.49,4c.05.11.08.14.1.15s.35-.84.35-2.87C41.46,26.4,41.08,24.91,40.89,24.84Z" fill="#040707"/><path d="M9.83,27.57v-.18H9.76a.18.18,0,0,0-.1,0,.35.35,0,0,0-.1.12.82.82,0,0,0-.1.24,4.52,4.52,0,0,0-.11.47c0,.32-.08.63-.1.94a16.87,16.87,0,0,0,0,1.88c0,.63.06,1.25.14,1.88a7.58,7.58,0,0,0,.17.93,2.64,2.64,0,0,0,.13.46,1.19,1.19,0,0,0,.12.22.87.87,0,0,0,.09.11l.07,0h0s0,0,0,0v-.16h0l0,0-.06-.07a.56.56,0,0,1-.09-.19c-.05-.14-.09-.28-.13-.43a9.28,9.28,0,0,1-.15-.92c-.08-.61-.12-1.23-.14-1.85a16.45,16.45,0,0,1,0-1.86,9.24,9.24,0,0,1,.1-.92c0-.15.06-.3.1-.44s.06-.14.08-.2l0-.07Z" fill="#040707"/><path d="M10.71,33.52c.81-.12,1.64-.15,2.46-.24s1.64-.16,2.47-.2h0c-.82.1-1.64.18-2.47.23s-1.64.18-2.46.2Z" fill="#030707"/><path d="M10.45,32.88c.61-.1,1.24-.11,1.85-.18s1.24-.12,1.86-.14h0c-.61.08-1.23.14-1.85.17s-1.24.13-1.86.14Z" fill="#030707"/><path d="M10.28,32.25c.44-.08.9-.08,1.35-.13S12.52,32,13,32h0c-.45.06-.9.1-1.35.13s-.9.1-1.35.1Z" fill="#030707"/><path d="M10.13,31.62c.29-.05.59,0,.88-.08a8.89,8.89,0,0,1,.89-.07h0a8.91,8.91,0,0,1-.89.08c-.29,0-.58.07-.88.07Z" fill="#030707"/><path d="M10,31c.23,0,.46,0,.68-.06a3.89,3.89,0,0,1,.68-.05h0a5.23,5.23,0,0,1-.68.07c-.22,0-.45,0-.68,0Z" fill="#030707"/><path d="M10,30.36a4.8,4.8,0,0,1,.52-.05,3.15,3.15,0,0,1,.53,0h0a2.31,2.31,0,0,1-.52.06,4.71,4.71,0,0,1-.53,0Z" fill="#030707"/><path d="M10.82,34.11c1.14-.15,2.29-.18,3.43-.31s2.28-.21,3.42-.27h0c-1.14.13-2.28.23-3.42.31s-2.28.23-3.43.27Z" fill="#030707"/><path d="M32.84,26.11c1.2-.16,2.42-.2,3.63-.33s2.43-.22,3.65-.29h0c-1.21.14-2.43.24-3.64.32s-2.43.25-3.64.29Z" fill="#030707"/><path d="M34.87,26.66c.85-.13,1.7-.14,2.55-.24s1.69-.16,2.54-.2h0q-1.28.16-2.55.24c-.85,0-1.69.18-2.55.19Z" fill="#030707"/><path d="M36.4,27.18c.58-.11,1.16-.1,1.74-.17a17,17,0,0,1,1.75-.13h0a17,17,0,0,1-1.75.16c-.58,0-1.15.14-1.74.13Z" fill="#030707"/><path d="M37.42,27.76c.4-.1.82-.07,1.23-.13a8.52,8.52,0,0,1,1.24-.08h0a10.22,10.22,0,0,1-1.24.13c-.41,0-.82.11-1.23.08Z" fill="#030707"/><path d="M38.1,28.36a6.55,6.55,0,0,1,.89-.1,4.49,4.49,0,0,1,.9-.05h0a5.51,5.51,0,0,1-.9.1,6.64,6.64,0,0,1-.89.05Z" fill="#030707"/><path d="M38.58,28.94a4.81,4.81,0,0,1,.65-.08,2.44,2.44,0,0,1,.66,0h0a2.41,2.41,0,0,1-.65.08,4.86,4.86,0,0,1-.66,0Z" fill="#030707"/><path d="M29.83,21.78c0,.21-.2.33-.47.24a.71.71,0,0,1-.53-.59c0-.24.24-.34.53-.23A.71.71,0,0,1,29.83,21.78Z" fill="#343330"/><path d="M23.94,10.35c0,.22-.21.33-.48.25a.72.72,0,0,1-.53-.59c0-.25.25-.34.53-.23A.71.71,0,0,1,23.94,10.35Z" fill="#343330"/><path d="M27.73,12.3c0,.21-.2.33-.47.24a.71.71,0,0,1-.53-.59c0-.24.24-.34.53-.23A.71.71,0,0,1,27.73,12.3Z" fill="#343330"/><path d="M22.09,10.72c0,.22-.2.33-.47.25a.73.73,0,0,1-.53-.6c0-.24.24-.34.53-.23A.73.73,0,0,1,22.09,10.72Z" fill="#343330"/><path d="M30,19.12c0,.21-.21.32-.48.24a.72.72,0,0,1-.53-.59c0-.24.25-.34.53-.23A.73.73,0,0,1,30,19.12Z" fill="#343330"/><path d="M26,20.39c0,.21-.2.33-.47.24A.72.72,0,0,1,25,20c0-.24.25-.34.53-.23A.71.71,0,0,1,26,20.39Z" fill="#343330"/><text transform="translate(14.49 31.78) rotate(-4.95)" font-size="4.66" fill="#1d1d1b" font-family="AnonymousPro-BoldItalic, Anonymous Pro" font-weight="700" font-style="italic">РАЗВИТИЕ</text></g></svg>