<svg xmlns="http://www.w3.org/2000/svg" viewBox="0 0 48.77 43"><g id="b9a9b36d-486b-4a4c-9554-a042d844a64b" data-name="текст"><path d="M26.82,6.51l.62,4.63-.77-.43-.53-4.27c-.29,0-.59-.05-.88-.06l.47,3.92L25.25,10l-.51-3.59h-.55l.53,3.28-.61-.2-.44-3.06a15.34,15.34,0,0,0-2.46.35l.15,2.5h-.58l-.18-.2.06-2.18-.76.22.26,2.48-.48.59.33.89-.35.56L19.5,7.23l-.41.14.19,4.73-.58.71-.17-5.22a16.46,16.46,0,1,0,8.29-1.08Z" fill="none"/><path d="M24.72,9.67l-.53-3.28-.52,0,.44,3.06Z" fill="#343330"/><path d="M25.73,10.3l-.47-3.92h-.52L25.25,10Z" fill="#343330"/><path d="M27.44,11.14l-.62-4.63-.68-.07.53,4.27Z" fill="#343330"/><path d="M20.78,9.26h.58l-.15-2.5-.55.12L20.6,9.06Z" fill="#343330"/><path d="M20,11.06l-.33-.89.48-.59L19.9,7.1l-.4.13.16,4.39Z" fill="#343330"/><path d="M19.28,12.1l-.19-4.73-.56.22.17,5.22Z" fill="#343330"/><polygon points="18.53 7.4 18.53 7.4 18.53 7.32 18.53 7.4" fill="#343330"/><circle cx="24.65" cy="21.5" r="20.88" fill="none" stroke="#fdfdfd" stroke-miterlimit="10" stroke-width="0.71"/><path d="M24.77,6.39A15.23,15.23,0,1,1,9.54,21.61,15.21,15.21,0,0,1,24.77,6.39m0-1A16.2,16.2,0,1,0,41,21.61,16.21,16.21,0,0,0,24.77,5.42Z" fill="#fdfdfd"/><path d="M7.94,19.26l-.05.5-1.33.59.19.2,1.06.1,0,.43-2.72-.25,0-.43,1.07.1-1-.95L5.23,19l1,1.05Z" fill="#fff"/><path d="M8.29,17.49l-.67.05-.2.88.59.33-.1.44L5.44,17.77l.11-.49,2.84-.23Zm-1.22.73.15-.65-1.17.08Z" fill="#fff"/><path d="M8,16.86a1.07,1.07,0,0,0-.12-.24.69.69,0,0,0-.21-.21,3.43,3.43,0,0,0-.4-.21l-.71-.27L6,15.7l.42-1.16,2.2.79L8.69,15l1,.35-.14.37-.62-.23-.4,1.1.63.23L9,17.22ZM6.74,15.53l.59.22a3.22,3.22,0,0,1,.41.19,1.06,1.06,0,0,1,.28.2.9.9,0,0,1,.17.26l.24-.66L6.6,15.08l-.13.35Z" fill="#fff"/><path d="M8.28,12.4a.75.75,0,0,1,.43.5,1.12,1.12,0,0,1-.14.7L8.36,14l1,.5-.2.39L6.72,13.67l.4-.8a1.13,1.13,0,0,1,.5-.53A.78.78,0,0,1,8.28,12.4Zm-.21.38a.37.37,0,0,0-.34,0,.6.6,0,0,0-.26.28l-.21.42.75.39.21-.42a.62.62,0,0,0,.08-.38A.4.4,0,0,0,8.07,12.78Z" fill="#fff"/><path d="M8.88,12.39a1.89,1.89,0,0,1-.4-.34,1.71,1.71,0,0,1-.28-.4,1,1,0,0,1-.07-.44.9.9,0,0,1,.17-.47,1,1,0,0,1,.37-.33.83.83,0,0,1,.44-.09,1.17,1.17,0,0,1,.47.1,1.94,1.94,0,0,1,.47.25,1.89,1.89,0,0,1,.4.34,1.52,1.52,0,0,1,.28.4,1,1,0,0,1,.08.44,1.1,1.1,0,0,1-.55.81,1.08,1.08,0,0,1-.44.09,1.39,1.39,0,0,1-.47-.11A1.94,1.94,0,0,1,8.88,12.39ZM9.12,12a2.58,2.58,0,0,0,.32.18,1.12,1.12,0,0,0,.33.1.6.6,0,0,0,.3,0,.5.5,0,0,0,.24-.2.51.51,0,0,0,.1-.3.71.71,0,0,0-.09-.28,1.74,1.74,0,0,0-.22-.27L9.81,11a2,2,0,0,0-.32-.18,1.39,1.39,0,0,0-.33-.1.61.61,0,0,0-.3,0,.5.5,0,0,0-.24.2.5.5,0,0,0,0,.53A1.59,1.59,0,0,0,9.12,12Z" fill="#fff"/><path d="M11.93,9.4a.62.62,0,0,1,.25.55,1.14,1.14,0,0,1-.33.67l-.57.65-2-1.79.54-.62L10,8.63a1.12,1.12,0,0,1,.28-.16.61.61,0,0,1,.3,0,.72.72,0,0,1,.32.17.67.67,0,0,1,.22.33.61.61,0,0,1,0,.4.84.84,0,0,1,.42-.14A.6.6,0,0,1,11.93,9.4ZM10.68,9a.38.38,0,0,0-.18-.09.33.33,0,0,0-.17,0,.34.34,0,0,0-.14.08l-.13.13-.25.29.57.5.25-.3a.76.76,0,0,0,.11-.14.47.47,0,0,0,.06-.15.33.33,0,0,0,0-.17A.38.38,0,0,0,10.68,9Zm.94.7a.35.35,0,0,0-.33-.09.67.67,0,0,0-.33.23l-.29.33.6.53.29-.33a.7.7,0,0,0,.19-.36A.35.35,0,0,0,11.62,9.69Z" fill="#fff"/><path d="M11.64,8.77a2.61,2.61,0,0,1-.31-.43,1.57,1.57,0,0,1-.16-.46.93.93,0,0,1,0-.44A.84.84,0,0,1,11.49,7a.91.91,0,0,1,.89-.21,1.32,1.32,0,0,1,.43.21,2.19,2.19,0,0,1,.39.36,2.13,2.13,0,0,1,.31.43,1.35,1.35,0,0,1,.17.46,1,1,0,0,1,0,.45.94.94,0,0,1-.28.41.91.91,0,0,1-.89.21A1.4,1.4,0,0,1,12,9.13,2.19,2.19,0,0,1,11.64,8.77ZM12,8.49a3.07,3.07,0,0,0,.26.25,1.6,1.6,0,0,0,.29.19.63.63,0,0,0,.3.05.51.51,0,0,0,.28-.13.58.58,0,0,0,.17-.27.61.61,0,0,0,0-.3A1.1,1.1,0,0,0,13.1,8a2,2,0,0,0-.22-.29,2.13,2.13,0,0,0-.26-.26,1.35,1.35,0,0,0-.29-.18.63.63,0,0,0-.3,0,.48.48,0,0,0-.28.13.5.5,0,0,0-.17.5A1.53,1.53,0,0,0,12,8.49Z" fill="#fff"/><path d="M15.69,7.29l-1.44,1L12.71,6l1.44-1,.22.32-1.08.74.43.63.84-.58.22.32-.84.58.45.66L15.47,7Z" fill="#fff"/><path d="M33.54,7.21l.16-.66-.78-.46-.49.47L32,6.32l2.12-1.91.42.26-.65,2.77Zm-.32-1.39.57.35L34.08,5Z" fill="#fff"/><path d="M36.86,6.7l-1-.79L34.41,7.77l-.35-.26,1.65-2.17,1.39,1Z" fill="#fff"/><path d="M37,10,35.77,8.8l1.9-2,1.25,1.22-.27.28-.94-.92L37.18,8l.73.72L37.64,9l-.73-.71-.56.57.93.92Z" fill="#fff"/><path d="M38.35,11.63l-.27-.34.94-.74-.55-.68-.93.74-.27-.34,2.14-1.69.26.34-.89.71.54.68.9-.71.27.34Z" fill="#fff"/><path d="M41,12.59l-.21-.33.52-.31-.19-.32-1.67,1,.23.37-.33.2-.67-1.1.33-.2.22.37,1.66-1L40.72,11l-.51.31-.2-.33.85-.51,1,1.66Z" fill="#fff"/><path d="M41.22,15.13a1.33,1.33,0,0,1-.39,0,1.14,1.14,0,0,1-.33-.07.92.92,0,0,1-.28-.19,1.05,1.05,0,0,1-.21-.31,1.09,1.09,0,0,1-.09-.49.94.94,0,0,1,.16-.42,1.25,1.25,0,0,1,.34-.35,2.56,2.56,0,0,1,.45-.27,2.5,2.5,0,0,1,.51-.16,1.31,1.31,0,0,1,.48,0,1,1,0,0,1,.42.16,1,1,0,0,1,.3.38,1.21,1.21,0,0,1,.05.18,1.09,1.09,0,0,1,0,.18,1.21,1.21,0,0,1,0,.18.76.76,0,0,1-.11.14l.29-.13.16.35-.94.42-.16-.35.22-.13a1.29,1.29,0,0,0,.16-.18.62.62,0,0,0,.07-.23.47.47,0,0,0-.05-.25.42.42,0,0,0-.2-.23.6.6,0,0,0-.29-.08,1.32,1.32,0,0,0-.34,0l-.35.13-.32.17a1,1,0,0,0-.26.23.6.6,0,0,0-.14.26.53.53,0,0,0,0,.32.5.5,0,0,0,.32.3,1.21,1.21,0,0,0,.51,0Z" fill="#fff"/><path d="M42.74,16.93l-.11-.37.58-.18L43.1,16l-1.86.57.12.41-.37.12-.38-1.24.38-.11.12.41L43,15.62l-.1-.36-.58.18-.11-.37,1-.29.56,1.86Z" fill="#fff"/><path d="M42.21,19.37a.61.61,0,0,1-.59-.15,1.23,1.23,0,0,1-.31-.67l-.15-.86,2.69-.46L44,18a2,2,0,0,1,0,.34,1.06,1.06,0,0,1-.05.31.61.61,0,0,1-.18.24.76.76,0,0,1-.34.15.73.73,0,0,1-.39,0,.56.56,0,0,1-.3-.27.81.81,0,0,1-.16.42A.6.6,0,0,1,42.21,19.37Zm0-.42a.36.36,0,0,0,.28-.2.67.67,0,0,0,0-.41l-.08-.43-.79.14.08.43a.74.74,0,0,0,.16.38A.36.36,0,0,0,42.18,19Zm1.14-.3a.3.3,0,0,0,.18-.07.33.33,0,0,0,.1-.14.41.41,0,0,0,0-.16,1.09,1.09,0,0,0,0-.18l-.07-.38-.75.13.07.38c0,.06,0,.12,0,.17a.53.53,0,0,0,.08.15.34.34,0,0,0,.14.09A.33.33,0,0,0,43.32,18.65Z" fill="#fff"/><path d="M42.88,19.56a2.28,2.28,0,0,1,.53,0,1.32,1.32,0,0,1,.46.16.91.91,0,0,1,.47.78,1.07,1.07,0,0,1-.1.49,1,1,0,0,1-.3.34,1.37,1.37,0,0,1-.44.2,3,3,0,0,1-.52.08,2.33,2.33,0,0,1-.53,0,1.56,1.56,0,0,1-.46-.16,1,1,0,0,1-.33-.31,1,1,0,0,1-.14-.48.87.87,0,0,1,.1-.49.89.89,0,0,1,.3-.34,1.37,1.37,0,0,1,.44-.2A3,3,0,0,1,42.88,19.56Zm0,.44a2.2,2.2,0,0,0-.36,0,1.07,1.07,0,0,0-.33.11.61.61,0,0,0-.22.2.43.43,0,0,0-.08.3.49.49,0,0,0,.1.3.62.62,0,0,0,.25.17,1.07,1.07,0,0,0,.33.08,1.91,1.91,0,0,0,.73,0,1,1,0,0,0,.32-.11.5.5,0,0,0,.23-.2.48.48,0,0,0,.08-.3.5.5,0,0,0-.29-.44A1.43,1.43,0,0,0,42.9,20Z" fill="#fff"/><path d="M23.84,21.48l.68.24.83.28.45.15c.58.17.85.14.88.29s0,0-.07.12a1.1,1.1,0,0,0,.09.88,10.66,10.66,0,0,0,.41,1.21,3,3,0,0,0,.05.33c.09.28.24.52.28.66a3.62,3.62,0,0,0,.32.64c.14.24.32.34.42.5.26.4.48.7.6.87l.45.58.31.41c0,.06.32.43.55.76s.45.64.73,1.1a10.53,10.53,0,0,1,.68,1.29A6.42,6.42,0,0,1,31.93,33a4.65,4.65,0,0,1,.13,1.47,5,5,0,0,1-.89,2.33,5.39,5.39,0,0,1-3.77,2.08,4.43,4.43,0,0,1-1.25-.08A4.3,4.3,0,0,1,24.5,38a5.92,5.92,0,0,1-1.77-2.57,6.24,6.24,0,0,1-.45-2,1.46,1.46,0,0,1,.13-.94,1,1,0,0,1,.48-.46,1.21,1.21,0,0,1,1.31.29c.34.28.35.4,1,1,.07.06.74.43.82.37a.07.07,0,0,0,0,0c.08-.15.09-.15.14-.24a5.15,5.15,0,0,0,.24-.65,2.84,2.84,0,0,0,0-1.23,4.84,4.84,0,0,0-.51-1.27c-.14-.26-.16-.25-.63-1-.35-.55-.52-.82-.69-1.11A14,14,0,0,1,24,26.84c-.25-.61-.38-.92-.51-1.31s-.24-.81-.38-.81,0,0-.1.08-.18,0-.45,0H22.3a3.05,3.05,0,0,1-.41,0c-.13,0-.2,0-.21-.05s.2-.33.53-.63.68-.63.95-.9c.61-.59.47-.55.71-.73s.45-.29.42-.44a.24.24,0,0,0-.1-.14c-.1-.09-.17-.07-.32-.14s-.21-.11-.2-.18S23.78,21.49,23.84,21.48Z" fill="#92989e"/><path d="M20.68,9.37,23.12,9l4.55,2.35,2.92,3.45-.36,7.85L30,23l-.52.47-.37-.13-.14-.05L27.3,24.92,28.11,23a11.47,11.47,0,0,1-1.55-.45l-2.66-.89-.39-.26L22,16.47l-2.28-6.3.55-.44Z" fill="#f7ea53"/><path d="M23.09,20.19s-.13.44-.06.5-.46.31-.56.59a7.41,7.41,0,0,0-.14,1.11l.06.06-2.16,2.29L20,25l0,.36.49.32,1,.32,1.85.6.52.13L23.1,25v-.31a3.34,3.34,0,0,0,.26-1.35l1.15-.95.16-.19L24.28,22l.11-.06-.71-.32,0-.17-.52-1.34-.15.07Z" fill="#f7ea53"/><polygon points="23.47 21.79 20.39 25.02 21.07 25.26 24.27 21.95 23.83 21.72 23.68 21.63 23.47 21.79" fill="#92989e"/><polygon points="16.61 14.65 16.02 15.43 19.27 26.34 20.03 25.71 19.97 25.15 20.7 24.19 21.41 23.4 20.7 21.68 20.55 21.31 20.39 20.79 20.14 20.34 20.53 19.76 19.5 18.89 18.96 17.3 17.77 15.35 17.5 14.54 16.61 14.65" fill="#f7ea53"/><polygon points="24.08 26.87 20.12 25.56 19.27 26.34 24.08 27.64 24.34 27.72 24.08 26.87" fill="#e0ca3a"/><rect x="18.92" y="20.93" width="2.91" height="0.5" rx="0.25" transform="matrix(0.87, -0.5, 0.5, 0.87, -7.86, 13.03)" fill="#030707"/><path d="M20.7,13.57l-1.21,1.67L18.3,16.32a7.94,7.94,0,0,0,.61,1.94c.24.22,1,1.08,1,1.08l.46.36.09.06,1.61-1.86.23-.21L22,16.94l-1.11-3.46Z" fill="#7b7f87"/><polygon points="22.15 17.99 22.25 17.89 22.41 18.28 20.41 20.68 20.14 20.34 22.11 18.04 22.15 17.99" fill="#7b7f87"/><polygon points="17.43 14.47 20 11.06 20.92 13.48 20.5 13.91 20.28 14.43 20.08 14.8 19.79 15.15 19.47 15.45 19.17 15.79 18.8 16.13 18.53 16.47 17.41 16.25 16.88 15.28 16.72 14.43 17.43 14.47" fill="#030707"/><polygon points="19.87 21.19 22.46 18.26 23.05 20.08 23.11 20.23 23.05 20.51 23.07 20.65 23.03 20.7 22.8 20.91 22.52 21.28 22.37 21.88 22.38 22.39 22.15 22.62 20.96 23.88 19.87 21.19" fill="#030707"/><path d="M18.3,16.32l-.49-.1-.4,0a22.64,22.64,0,0,0,1,2.41c.16.22.56,1.15.91,1.69a4.1,4.1,0,0,1-.09,1.28l1.24-.72-.32-.61.31-.54-.72-.57h0a6.17,6.17,0,0,1-.78-.93A6.7,6.7,0,0,1,18.44,17C18.41,16.78,18.3,16.32,18.3,16.32Z" fill="#030707"/><polygon points="20.12 9.1 20.65 8.84 20.92 9.42 20.12 9.58 20.12 9.1" fill="#030707"/><path d="M24,23.13a4.57,4.57,0,0,1,.73-.53c.07,0,.2-.54.2-.54V22l-.07,0-.71-.24-.19-.11.37.32,0,.12.15.09.18.1-.33.31-.32.26Z" fill="#030707"/><path d="M26.61,23.18a6,6,0,0,0-1.7.63c-.2.27,0-1.49,0-1.49l0-.42,1.49.53.28.08v.64Z" fill="#030707"/><path d="M9.43,27.72A1.52,1.52,0,0,0,8.94,29c0,.84,0,2.39,0,2.75a13.81,13.81,0,0,0,.24,2.38c.18.46.35.87.35.87h1.54l5.31-.59,4-.32L22.11,34l.12-1,.18-.59.71-.33.55,0,.82.62.47.45.41.33.55.25.06-.16,1.74-.09-1.58,0L30,33.16l5.18-.52,4.47-.24,1.76-.22-.13-.34-.3-.73-.26-2.17,0-1.34.09-1.66L41,25l.21-.19L39.57,25l-30,2.68Z" fill="#e5eaf7"/><polygon points="40.84 26.47 40.79 27.5 40.82 29.25 40.98 30.66 41.17 31.59 41.38 32.14 41.66 32.14 41.98 30.82 41.98 29.25 41.96 28.08 41.76 26.02 41.48 25.02 41.38 24.81 41.28 24.91 41.03 25.26 40.84 26.47" fill="#030707"/><polygon points="19.16 19.82 18.34 20.19 19.09 19.69 19.16 19.82" fill="#030707"/><polygon points="19.2 19.57 18.38 19.94 19.13 19.44 19.2 19.57" fill="#030707"/><polygon points="19.02 19.45 18.2 19.81 18.95 19.31 19.02 19.45" fill="#030707"/><polygon points="19.51 20.32 18.69 20.69 19.44 20.19 19.51 20.32" fill="#030707"/><polygon points="19.59 20.53 18.77 20.89 19.52 20.39 19.59 20.53" fill="#030707"/><polygon points="19.7 20.71 18.88 21.07 19.62 20.57 19.7 20.71" fill="#030707"/><polygon points="19.7 20.98 18.88 21.35 19.62 20.85 19.7 20.98" fill="#030707"/><polygon points="20.19 21.83 19.11 22.39 20.12 21.71 20.19 21.83" fill="#030707"/><polygon points="20.33 22.08 19.26 22.64 20.26 21.96 20.33 22.08" fill="#030707"/><polygon points="22.71 24.87 23.2 26.4 22.58 24.91 22.71 24.87" fill="#030707"/><polygon points="22.41 24.87 22.9 26.4 22.28 24.91 22.41 24.87" fill="#030707"/><polygon points="22.1 24.8 22.41 25.84 21.98 24.84 22.1 24.8" fill="#030707"/><polygon points="23.69 24.59 24.61 24.01 23.76 24.7 23.69 24.59" fill="#030707"/><polygon points="24.9 23.45 26.38 23.67 24.88 23.61 24.9 23.45" fill="#030707"/><polygon points="25.08 23.24 26.56 23.46 25.06 23.39 25.08 23.24" fill="#030707"/><polygon points="25.11 23.05 26.6 23.27 25.1 23.21 25.11 23.05" fill="#030707"/><polygon points="24.87 23.73 26.35 23.95 24.85 23.89 24.87 23.73" fill="#030707"/><polygon points="24.98 24.39 26.48 24.5 24.97 24.54 24.98 24.39" fill="#030707"/><polygon points="26.3 33.58 27.46 33.68 26.29 33.71 26.3 33.58" fill="#030707"/><polygon points="26.37 33.41 27.46 33.51 26.37 33.54 26.37 33.41" fill="#030707"/><polygon points="26.3 33.23 27.38 33.33 26.29 33.36 26.3 33.23" fill="#030707"/><polygon points="25.18 25.04 26.27 25.06 25.19 25.17 25.18 25.04" fill="#030707"/><polygon points="25.24 25.34 26.33 25.37 25.25 25.48 25.24 25.34" fill="#030707"/><polygon points="25.46 25.63 26.54 25.6 25.47 25.76 25.46 25.63" fill="#030707"/><polygon points="25.59 25.93 26.57 25.86 25.61 26.04 25.59 25.93" fill="#030707"/><polygon points="25.84 26.43 26.7 26.28 25.87 26.53 25.84 26.43" fill="#030707"/><polygon points="23.61 24.4 24.5 23.79 23.69 24.51 23.61 24.4" fill="#030707"/><polygon points="23.56 24.21 24.46 23.59 23.65 24.31 23.56 24.21" fill="#030707"/><polygon points="23.56 24.01 24.46 23.39 23.65 24.11 23.56 24.01" fill="#030707"/><polygon points="23.61 23.7 24.53 23.11 23.75 23.87 23.61 23.7" fill="#030707"/><polygon points="23.6 23.38 24.59 22.91 23.76 23.62 23.6 23.38" fill="#030707"/><polygon points="23.68 23.24 24.64 22.71 23.76 23.35 23.68 23.24" fill="#030707"/><polygon points="23.73 24.88 24.6 24.24 23.81 24.98 23.73 24.88" fill="#030707"/><polygon points="23.72 25.2 24.62 24.59 23.8 25.31 23.72 25.2" fill="#030707"/><polygon points="23.84 25.6 24.66 24.88 23.94 25.69 23.84 25.6" fill="#030707"/><polygon points="23.95 25.95 24.77 25.23 24.05 26.04 23.95 25.95" fill="#030707"/><polygon points="24.03 26.31 24.84 25.59 24.12 26.41 24.03 26.31" fill="#030707"/><polygon points="24.14 26.62 24.96 25.9 24.24 26.71 24.14 26.62" fill="#030707"/><polygon points="24.22 27 25.04 26.28 24.31 27.1 24.22 27" fill="#030707"/><polygon points="24.32 27.33 25.14 26.62 24.41 27.43 24.32 27.33" fill="#030707"/><polygon points="24.34 27.78 25.14 27.05 24.43 27.87 24.34 27.78" fill="#030707"/><polygon points="21.86 24.8 22.04 25.51 21.73 24.84 21.86 24.8" fill="#030707"/><polygon points="22.96 24.87 23.45 26.4 22.83 24.91 22.96 24.87" fill="#030707"/><polygon points="20.41 22.31 19.34 22.88 20.35 22.2 20.41 22.31" fill="#030707"/><polygon points="20.55 22.56 19.48 23.13 20.49 22.45 20.55 22.56" fill="#030707"/><polygon points="20.63 22.83 19.56 23.39 20.56 22.71 20.63 22.83" fill="#030707"/><polygon points="20.72 23.06 19.65 23.63 20.65 22.95 20.72 23.06" fill="#030707"/><polygon points="20.86 23.31 19.79 23.88 20.79 23.2 20.86 23.31" fill="#030707"/><polygon points="20.9 23.6 19.83 24.16 20.83 23.48 20.9 23.6" fill="#030707"/><polygon points="21.15 23.82 19.89 24.43 21.17 23.59 21.21 23.76 21.15 23.82" fill="#030707"/><polygon points="20.7 24.24 20.61 24.34 19.95 24.66 20.77 24.16 20.7 24.24" fill="#030707"/><polygon points="19.4 20.15 18.58 20.51 19.32 20.01 19.4 20.15" fill="#030707"/><polygon points="19.36 19.95 18.55 20.31 19.29 19.81 19.36 19.95" fill="#030707"/><polygon points="19.02 19.26 18.2 19.63 18.95 19.13 19.02 19.26" fill="#030707"/><polygon points="18.98 19.08 18.16 19.44 18.91 18.95 18.98 19.08" fill="#030707"/><polygon points="18.99 18.86 18.17 19.23 18.91 18.73 18.99 18.86" fill="#030707"/><polygon points="18.78 18.76 18.15 19.04 18.71 18.64 18.78 18.76" fill="#030707"/><polygon points="18.63 18.62 18 18.9 18.56 18.5 18.63 18.62" fill="#030707"/><polygon points="18.58 18.24 17.95 18.52 18.51 18.12 18.58 18.24" fill="#030707"/><polygon points="18.66 18.4 18.02 18.68 18.59 18.28 18.66 18.4" fill="#030707"/><polygon points="18.61 18.02 17.91 18.31 18.53 17.88 18.61 18.02" fill="#030707"/><polygon points="18.54 17.83 17.84 18.13 18.46 17.7 18.54 17.83" fill="#030707"/><polygon points="18.44 17.67 17.74 17.97 18.36 17.53 18.44 17.67" fill="#030707"/><polygon points="18.44 17.47 17.74 17.77 18.37 17.34 18.44 17.47" fill="#030707"/><polygon points="18.34 17.3 17.64 17.6 18.27 17.17 18.34 17.3" fill="#030707"/><line x1="23.36" y1="34.35" x2="22.5" y2="34.95" fill="none" stroke="#030707" stroke-miterlimit="10" stroke-width="0.11"/><line x1="23.24" y1="34.18" x2="22.47" y2="34.72" fill="none" stroke="#030707" stroke-miterlimit="10" stroke-width="0.11"/><line x1="23.16" y1="33.96" x2="22.39" y2="34.5" fill="none" stroke="#030707" stroke-miterlimit="10" stroke-width="0.11"/><line x1="23.11" y1="33.77" x2="22.34" y2="34.3" fill="none" stroke="#030707" stroke-miterlimit="10" stroke-width="0.11"/><line x1="23.11" y1="33.54" x2="22.34" y2="34.08" fill="none" stroke="#030707" stroke-miterlimit="10" stroke-width="0.11"/><line x1="23.46" y1="34.53" x2="22.5" y2="35.2" fill="none" stroke="#030707" stroke-miterlimit="10" stroke-width="0.11"/><line x1="23.54" y1="34.73" x2="22.62" y2="35.37" fill="none" stroke="#030707" stroke-miterlimit="10" stroke-width="0.11"/><line x1="23.71" y1="35.1" x2="22.74" y2="35.78" fill="none" stroke="#030707" stroke-miterlimit="10" stroke-width="0.11"/><line x1="23.6" y1="34.94" x2="22.7" y2="35.56" fill="none" stroke="#030707" stroke-miterlimit="10" stroke-width="0.11"/><line x1="23.83" y1="35.25" x2="22.78" y2="35.98" fill="none" stroke="#030707" stroke-miterlimit="10" stroke-width="0.11"/><line x1="23.92" y1="35.45" x2="22.97" y2="36.11" fill="none" stroke="#030707" stroke-miterlimit="10" stroke-width="0.11"/><line x1="24.24" y1="35.78" x2="23.17" y2="36.52" fill="none" stroke="#030707" stroke-miterlimit="10" stroke-width="0.11"/><line x1="24.09" y1="35.59" x2="23.05" y2="36.31" fill="none" stroke="#030707" stroke-miterlimit="10" stroke-width="0.11"/><line x1="24.41" y1="35.94" x2="23.26" y2="36.74" fill="none" stroke="#030707" stroke-miterlimit="10" stroke-width="0.11"/><line x1="24.58" y1="36.1" x2="23.42" y2="36.91" fill="none" stroke="#030707" stroke-miterlimit="10" stroke-width="0.11"/><line x1="24.8" y1="36.23" x2="23.54" y2="37.11" fill="none" stroke="#030707" stroke-miterlimit="10" stroke-width="0.11"/><polygon points="28.42 37.45 27.73 38.06 27.71 38.04 28.34 37.37 28.42 37.45" fill="#030707"/><polygon points="28.71 37.42 28.05 38.01 28.02 37.99 28.63 37.34 28.71 37.42" fill="#030707"/><polygon points="29 37.35 28.32 37.96 28.3 37.94 28.92 37.27 29 37.35" fill="#030707"/><polygon points="29.37 37.28 28.72 37.86 28.69 37.84 29.29 37.2 29.37 37.28" fill="#030707"/><polygon points="29.7 37.19 29.04 37.78 29.02 37.76 29.63 37.11 29.7 37.19" fill="#030707"/><polygon points="30.07 37.06 29.41 37.65 29.39 37.63 29.99 36.98 30.07 37.06" fill="#030707"/><polygon points="30.51 36.84 29.78 37.5 29.76 37.48 30.43 36.76 30.51 36.84" fill="#030707"/><polygon points="30.84 36.68 30.11 37.34 30.09 37.31 30.76 36.6 30.84 36.68" fill="#030707"/><polygon points="23.12 8.97 27.67 11.32 30.59 14.77 30.17 22.62 24.72 20.76 22.88 15.58 22.52 15.9 20.39 9.42 23.12 8.97" fill="none" stroke="#030707" stroke-miterlimit="10" stroke-width="0.22"/><polygon points="16.69 14.54 16.02 15.43 19.27 26.34 24.39 27.72 23.89 26.77 20.12 25.56 16.69 14.54" fill="none" stroke="#030707" stroke-miterlimit="10" stroke-width="0.22"/><polygon points="27.11 24.22 27.3 24.92 28.86 23.35 28.21 23.11 27.11 24.22" fill="#030707" stroke="#030707" stroke-miterlimit="10" stroke-width="0.22"/><path d="M21.13,25.39l-.87-.31L23.7,21.5l.84.4Zm-.62-.48.56.22L24.16,22l-.56-.28Z" fill="#030707"/><polygon points="20.56 20.5 22.41 18.28 22.22 17.84 20.18 20.27 20.41 20.68 20.56 20.5" fill="none" stroke="#030707" stroke-miterlimit="10" stroke-width="0.22"/><path d="M20.42,24.55a14.23,14.23,0,0,1,.9-1.15c.32-.37.62-.77,1-1.12l0,.1a2.72,2.72,0,0,1,.12-1,1.22,1.22,0,0,1,.69-.75l0,.07a.76.76,0,0,1,.1-.52h0a.74.74,0,0,0-.07.48h0a1.16,1.16,0,0,0-.6.73,2.23,2.23,0,0,0-.09,1h0l-1.95,2.18Z" fill="#030707"/><path d="M26,26.77c-.22-.37-.44-.74-.64-1.11a9,9,0,0,1-.56-1.17,3.57,3.57,0,0,1-.19-1.3,4.65,4.65,0,0,1,.24-1.32l.4.18A3.8,3.8,0,0,0,25,24.43a7.56,7.56,0,0,0,.46,1.16c.17.39.36.77.55,1.15Z" fill="#030707"/><path d="M18.6,16.34a3.22,3.22,0,0,0,.49,1.91,5.48,5.48,0,0,0,1.41,1.51A5.48,5.48,0,0,1,19,18.33a3.33,3.33,0,0,1-.66-2Z" fill="#030707"/><path d="M18.87,16.07a3.25,3.25,0,0,0,.5,1.91,5.26,5.26,0,0,0,1.4,1.5,5.44,5.44,0,0,1-1.53-1.42,3.44,3.44,0,0,1-.66-2Z" fill="#030707"/><path d="M19.21,15.73a3.3,3.3,0,0,0,.49,1.91,5.3,5.3,0,0,0,1.41,1.5,5.31,5.31,0,0,1-1.53-1.42,3.33,3.33,0,0,1-.66-2Z" fill="#030707"/><path d="M19.54,15.4A3.3,3.3,0,0,0,20,17.31a5.3,5.3,0,0,0,1.41,1.5,5.31,5.31,0,0,1-1.53-1.42,3.33,3.33,0,0,1-.66-2Z" fill="#030707"/><path d="M19.83,15.12A3.17,3.17,0,0,0,20.32,17a5.16,5.16,0,0,0,1.41,1.5,5.34,5.34,0,0,1-1.54-1.42,3.52,3.52,0,0,1-.66-2Z" fill="#030707"/><path d="M20.1,14.77a3.15,3.15,0,0,0,.49,1.91A5.16,5.16,0,0,0,22,18.18a5.48,5.48,0,0,1-1.54-1.42,3.47,3.47,0,0,1-.66-2Z" fill="#030707"/><path d="M20.39,14.35a3.15,3.15,0,0,0,.49,1.91,5.33,5.33,0,0,0,1.41,1.51,5.52,5.52,0,0,1-1.54-1.43,3.47,3.47,0,0,1-.66-2Z" fill="#030707"/><path d="M20.57,13.82a3.15,3.15,0,0,0,.35,1.68A4.94,4.94,0,0,0,22,16.9a4.88,4.88,0,0,1-1.23-1.33,3.4,3.4,0,0,1-.52-1.78Z" fill="#030707"/><polygon points="23.08 15.53 25.98 16.81 23 15.72 23.08 15.53" fill="#030707"/><path d="M28.77,20.15a.52.52,0,0,1-.21.5.9.9,0,0,1-.55.1,2.48,2.48,0,0,1-2.07-2,.47.47,0,0,1,.32-.44,1.07,1.07,0,0,1,.5,0,2.56,2.56,0,0,1,.88.38,3.42,3.42,0,0,1,.72.65A1.54,1.54,0,0,1,28.77,20.15Zm-.08,0a2.21,2.21,0,0,0-1.07-1.49,2.49,2.49,0,0,0-.87-.37.6.6,0,0,0-.44.08.37.37,0,0,0-.12.35,2.39,2.39,0,0,0,1.07,1.35,2.55,2.55,0,0,0,.8.38C28.32,20.51,28.65,20.49,28.69,20.15Z" fill="#030707"/><path d="M27.36,14a.53.53,0,0,1-.22.49.81.81,0,0,1-.54.1,2.11,2.11,0,0,1-1-.36,2.18,2.18,0,0,1-1.12-1.66.5.5,0,0,1,.33-.45,1.06,1.06,0,0,1,.5,0,2.23,2.23,0,0,1,.88.38,3.12,3.12,0,0,1,.72.64A1.57,1.57,0,0,1,27.36,14Zm-.08,0a2.21,2.21,0,0,0-1.07-1.5,2.3,2.3,0,0,0-.87-.36.6.6,0,0,0-.44.07.39.39,0,0,0-.12.36,2.36,2.36,0,0,0,1.07,1.34,2.61,2.61,0,0,0,.79.38C26.91,14.32,27.24,14.3,27.28,14Z" fill="#030707"/><polyline points="16.73 14.4 17.54 14.4 20 11.06 19.78 10.18 20.23 9.52" fill="none" stroke="#030707" stroke-miterlimit="10" stroke-width="0.22"/><path d="M20.27,9.75l2.19,6.48.19-.16L24.31,21l5.58,1.87-.5.55-5.74-1.91L19.83,10.33l.44-.58m.08-.47-.26.33-.44.58-.07.1,0,.11,3.82,11.15,0,.11.11,0,5.74,1.91.14,0,.1-.11.49-.55.23-.26-.32-.1-5.47-1.84L22.86,16l-.11-.32-.19.17L20.48,9.68l-.13-.4Z" fill="#030707"/><path d="M25.06,36.46a4.24,4.24,0,0,1-1.76-2,4.93,4.93,0,0,1-.36-1.3,2,2,0,0,1,0-.69.57.57,0,0,1,.49-.46v.06c-.45.11-.44.67-.37,1.07a4.63,4.63,0,0,0,.38,1.25,4.72,4.72,0,0,0,1.62,2Z" fill="#030707"/><path d="M26.66,22.54a8.12,8.12,0,0,0,.2,1.2,11.33,11.33,0,0,0,.36,1.17,10.45,10.45,0,0,0,1.12,2.18c.23.33.48.66.72,1l.74,1a24.62,24.62,0,0,1,1.36,2.07c.21.35.42.71.6,1.09a6.07,6.07,0,0,1,.24.59c0,.1.07.2.1.3l0,.16,0,.15,0,.16a1,1,0,0,1,0,.16c0,.11,0,.22,0,.33a2.76,2.76,0,0,1,0,.64A2.67,2.67,0,0,1,31.74,36a3,3,0,0,1-.95.88,4.56,4.56,0,0,1-1.18.45,6.49,6.49,0,0,1-1.24.17,5.2,5.2,0,0,1-.58,0,4.3,4.3,0,0,1-.65-.15h0a4.34,4.34,0,0,0,.61.06,5.51,5.51,0,0,0,.61,0,6.89,6.89,0,0,0,1.2-.24,3.93,3.93,0,0,0,1.08-.5,2.67,2.67,0,0,0,.82-.82,2.75,2.75,0,0,0,.36-1.09,3.71,3.71,0,0,0,0-.58,5.42,5.42,0,0,0-.06-.58,8,8,0,0,0-.31-1.16A9.13,9.13,0,0,0,31,31.25c-.19-.36-.41-.71-.63-1.06s-.46-.68-.69-1c-.48-.68-1-1.33-1.45-2A11.19,11.19,0,0,1,27.07,25c-.15-.39-.27-.78-.38-1.18-.05-.21-.1-.41-.14-.61s-.08-.41-.1-.62Z" fill="#030707"/><path d="M27.61,29.39a8.49,8.49,0,0,1,1.05,2.11,3.44,3.44,0,0,1,.2,1.2,1.2,1.2,0,0,1-.65,1.09A2.45,2.45,0,0,1,27,34a3.66,3.66,0,0,1-1.18-.25,3.14,3.14,0,0,1-1-.65,8.94,8.94,0,0,0-.85-.79.81.81,0,0,0-1-.08,1.44,1.44,0,0,0-.43.31,1.09,1.09,0,0,0-.14.5,5.39,5.39,0,0,0,.28,2.25,5,5,0,0,0,.46,1c.22.35.4.68.62,1a3.33,3.33,0,0,0,1.67,1.29A5.1,5.1,0,0,0,29.67,38a5,5,0,0,0,2.24-3.76,8,8,0,0,0-1.6-4.27c-.85-1.31-1.86-2.51-2.62-3.89l0,0c.78,1.36,1.78,2.56,2.68,3.84a8.24,8.24,0,0,1,1.75,4.34,5.36,5.36,0,0,1-2.27,4.08,5.12,5.12,0,0,1-4.68.92,3.51,3.51,0,0,1-1.85-1.66c-.21-.35-.36-.72-.53-1a5.4,5.4,0,0,1-.46-1.12A5.67,5.67,0,0,1,22.15,33a1.38,1.38,0,0,1,.22-.6,1.58,1.58,0,0,1,.52-.36,1.07,1.07,0,0,1,.62-.13,1.21,1.21,0,0,1,.56.26c.63.51,1.07,1.18,1.81,1.43a2.6,2.6,0,0,0,2.17-.08c.65-.32.59-1.22.39-1.93a11.39,11.39,0,0,0-.87-2.15Z" fill="#030707"/><path d="M23.9,24.48a10.82,10.82,0,0,0,.47,2.37,12.62,12.62,0,0,0,.94,2.24,10.23,10.23,0,0,1,1.13,2.21,3.29,3.29,0,0,1-.18,2.53L26,33.64a2.57,2.57,0,0,0,.33-2.3,7.79,7.79,0,0,0-1.18-2.12,16.32,16.32,0,0,1-1.19-2.17c-.34-.76-.66-1.52-.95-2.31Z" fill="#030707"/><path d="M21.87,24.86a.84.84,0,0,1-.31-.08l0-.06a.65.65,0,0,0,.27.08Z" fill="#030707"/><path d="M23.9,24.58a4.4,4.4,0,0,1,.26-1.81c.33-.61-.8.57-.8.57l-.15.82-.1.57Z" fill="#030707"/><path d="M26.54,33.74a3.6,3.6,0,0,0,.56,0,1.89,1.89,0,0,0,1-.32l.06,0L26,33.61h0A2.48,2.48,0,0,0,26.54,33.74Z" fill="none"/><path d="M31.56,31.78a13.3,13.3,0,0,0-1.18-2c-.44-.63-.91-1.24-1.37-1.85-.12-.15-.23-.31-.34-.46s-.11-.16-.16-.24-.11-.16-.16-.24a11.31,11.31,0,0,1-.62-1l0,0a10.77,10.77,0,0,0,.59,1l.16.24c0,.08.1.17.16.25s.21.31.32.47c.45.62.91,1.24,1.33,1.88a13.42,13.42,0,0,1,1.11,2,6.68,6.68,0,0,1,.37,1l.24,0A7.89,7.89,0,0,0,31.56,31.78Z" fill="#030707"/><path d="M28.87,32.64a3.53,3.53,0,0,0-.21-1.18,8.77,8.77,0,0,0-1.05-2.07l0,0a9.79,9.79,0,0,1,.48,1,8.47,8.47,0,0,1,.37,1.07,3.18,3.18,0,0,1,.14,1.09,1.11,1.11,0,0,1-.12.49.41.41,0,0,1-.05.09l.39,0A1.58,1.58,0,0,0,28.87,32.64Z" fill="#030707"/><polygon points="19.68 26.73 28.47 25.92 31.79 31.04 32.59 32.83 32.46 32.99 25.86 33.47 25.6 31.19 22.99 28.51 19.56 27.44 19.68 26.73" fill="#e5eaf7"/><path d="M28.17,33.42l.5,0a.75.75,0,0,0,.07-.12l0-.1-.39,0a.81.81,0,0,1-.09.1A.74.74,0,0,1,28.17,33.42Z" fill="#030707"/><path d="M31.73,32.89l.06.22.24,0L32,32.87Z" fill="#030707"/><path d="M41.52,32.25l0-.2-8.85.75-.71.06.06.22.67-.06Z" fill="#030707"/><path d="M28.67,33.38l3.12-.27-.06-.22-2.95.27,0,.1A.75.75,0,0,1,28.67,33.38Z" fill="#030707"/><path d="M28.17,33.42a.74.74,0,0,0,.13-.12.81.81,0,0,0,.09-.1l-2.79.25a2.54,2.54,0,0,0,.38.16Z" fill="#030707"/><path d="M22.1,33.77l-6.21.53-6.24.56,0,.2,6.24-.54,6.2-.55h0C22.11,33.9,22.1,33.83,22.1,33.77Z" fill="#030707"/><rect x="9.35" y="26.12" width="31.98" height="0.2" transform="translate(-2.22 2.35) rotate(-5.08)" fill="#040707"/><path d="M41.51,32.25c-.12,0-.22-.09-.31-.27a12.88,12.88,0,0,1-.52-4.16c0-1.21.11-2.73.44-3.05a.18.18,0,0,1,.15-.06c.59,0,.82,2.69.82,4.38,0,.91-.05,3.05-.54,3.16Zm-.23-7.33c-.13.07-.38,1-.38,2.9a13,13,0,0,0,.5,4.06c.06.11.09.14.11.15s.36-.86.36-2.94C41.87,26.52,41.48,25,41.28,24.92Z" fill="#040707"/><path d="M9.47,27.72v-.19H9.4a.25.25,0,0,0-.11,0,.35.35,0,0,0-.1.12.82.82,0,0,0-.1.24,4.85,4.85,0,0,0-.11.49c-.05.32-.08.64-.1,1a17.72,17.72,0,0,0,0,1.93q0,1,.15,1.92a8.26,8.26,0,0,0,.17.95,4.19,4.19,0,0,0,.14.47.72.72,0,0,0,.12.23.5.5,0,0,0,.1.11l.06,0h.1v-.17h0l0,0s-.05,0-.07-.06a1.21,1.21,0,0,1-.09-.2,2.23,2.23,0,0,1-.13-.44c-.07-.31-.12-.62-.16-.94-.08-.63-.12-1.26-.14-1.9a17.4,17.4,0,0,1,0-1.91,7.52,7.52,0,0,1,.11-.94A2.26,2.26,0,0,1,9.3,28a1.19,1.19,0,0,1,.08-.2l0-.07Z" fill="#040707"/><path d="M10.37,33.81c.83-.13,1.68-.14,2.52-.24s1.68-.17,2.53-.21h0c-.84.1-1.68.18-2.53.24s-1.68.18-2.52.21Z" fill="#030707"/><path d="M10.1,33.15c.63-.09,1.27-.1,1.9-.17s1.27-.13,1.91-.15h0c-.63.09-1.27.15-1.9.18s-1.27.14-1.91.15Z" fill="#030707"/><path d="M9.93,32.51c.46-.08.92-.08,1.38-.13a12.83,12.83,0,0,1,1.38-.11h0c-.46.07-.92.11-1.38.14s-.92.1-1.38.1Z" fill="#030707"/><path d="M9.78,31.87c.3-.05.6-.05.9-.09a9.07,9.07,0,0,1,.91-.06h0c-.3,0-.6.07-.91.09s-.6.07-.9.06Z" fill="#030707"/><path d="M9.69,31.21c.23,0,.46,0,.69-.07a5.37,5.37,0,0,1,.7,0h0a5.35,5.35,0,0,1-.7.07c-.23,0-.46.06-.69,0Z" fill="#030707"/><path d="M9.69,30.58a4.78,4.78,0,0,1,.53-.06,3.27,3.27,0,0,1,.54,0h0a3.29,3.29,0,0,1-.54.05,4.73,4.73,0,0,1-.53,0Z" fill="#030707"/><path d="M10.49,34.42c1.16-.16,2.34-.19,3.5-.31s2.34-.22,3.51-.29h0c-1.16.14-2.33.24-3.5.32s-2.34.24-3.51.28Z" fill="#030707"/><path d="M33,26.22c1.24-.16,2.49-.21,3.73-.33s2.49-.23,3.73-.3h0c-1.24.14-2.48.26-3.73.34s-2.48.25-3.72.3Z" fill="#030707"/><path d="M35.12,26.78c.86-.13,1.74-.14,2.61-.24s1.73-.16,2.61-.2h0c-.87.11-1.74.19-2.61.23s-1.73.19-2.61.21Z" fill="#030707"/><path d="M36.69,27.31c.59-.11,1.19-.09,1.78-.16A17.74,17.74,0,0,1,40.26,27h0c-.6.08-1.19.14-1.79.17s-1.18.14-1.78.13Z" fill="#030707"/><path d="M37.73,27.91c.41-.1.84-.07,1.26-.13a8.93,8.93,0,0,1,1.27-.09h0a7.69,7.69,0,0,1-1.27.12,10.52,10.52,0,0,1-1.26.09Z" fill="#030707"/><path d="M38.42,28.52c.3-.08.61,0,.92-.09a4.69,4.69,0,0,1,.92-.06h0a4.78,4.78,0,0,1-.92.09c-.31,0-.61.09-.92.06Z" fill="#030707"/><path d="M38.92,29.12a5.1,5.1,0,0,1,.67-.08,3,3,0,0,1,.67,0h0a2.15,2.15,0,0,1-.67.07,3.71,3.71,0,0,1-.67,0Z" fill="#030707"/><path d="M30,21.78c0,.22-.21.34-.49.26a.76.76,0,0,1-.54-.61c0-.25.25-.35.54-.24A.73.73,0,0,1,30,21.78Z" fill="#343330"/><path d="M23.92,10.08c0,.22-.21.34-.49.26a.76.76,0,0,1-.54-.61c0-.25.25-.35.54-.24A.73.73,0,0,1,23.92,10.08Z" fill="#343330"/><path d="M27.81,12.07c0,.22-.21.34-.49.26a.76.76,0,0,1-.54-.61c0-.25.25-.35.54-.24A.73.73,0,0,1,27.81,12.07Z" fill="#343330"/><path d="M22,10.46c0,.22-.21.33-.48.25A.74.74,0,0,1,21,10.1c0-.25.25-.35.55-.23A.74.74,0,0,1,22,10.46Z" fill="#343330"/><path d="M30.11,19.06c0,.22-.22.33-.49.25a.74.74,0,0,1-.54-.61c0-.25.25-.35.54-.23A.75.75,0,0,1,30.11,19.06Z" fill="#343330"/><path d="M26,20.36c0,.22-.21.34-.49.25A.73.73,0,0,1,25,20c0-.24.25-.34.54-.23A.73.73,0,0,1,26,20.36Z" fill="#343330"/><text transform="translate(14.24 32.03) rotate(-4.95)" font-size="4.77" fill="#1d1d1b" font-family="AnonymousPro-BoldItalic, Anonymous Pro" font-weight="700" font-style="italic">РАЗВИТИЕ</text></g></svg>